# xmcd
#
# Track frame offsets:
#	150
#	16267
#	33417
#	50606
#	65018
#	78918
#	96047
#	112390
#	130439
#	146271
#	164606
#	182524
#	199381
#	213861
#	229894
#	242270
#	258619
#	276721
#	294498
#	310734
#	328307
#
# Disc length: 4601 seconds
#
# Revision: 0
# Processed by: cddbd v1.5.2PL0 Copyright (c) Steve Scherf et al.
# Submitted via: EasyCDDAExtractor 12.0.4.1
#
DISCID=4311f715
DTITLE=ERG Music - Nu Country Traxx Volume 131 US
DYEAR=2010
DGENRE=Country
TTITLE0=Brad Paisley - Water 98BPM
TTITLE1=Kenny Chesney - Ain't Back Yet 107BPM
TTITLE2=Mirinda Lambert - The House That Built Me 81BPM
TTITLE3=George Strait - I Gotta Get To You 117BPM
TTITLE4=Jason Aldean - Crazy Town 91BPM
TTITLE5=Emily West ft. Keith Urban - Blue Sky 60BPM
TTITLE6=James Otto - Groovy Little Summer Song 97BPM
TTITLE7=Eli Young Band - Guinevere 71BPM
TTITLE8=Laura Bell Bundy - Giddy On Up 105BPM
TTITLE9=Taylor Swift - Today Was A Fairytale 79BPM
TTITLE10=The Harters - Jenny 82BPM
TTITLE11=Tim McGraw - Still 87BPM
TTITLE12=Blaine Larsen - Chillin' 79BPM
TTITLE13=Toby Keith - Every Dog Has It's Day 156BPM
TTITLE14=the JaneDear girls - Wildflower 126BPM
TTITLE15=Anthony Smith - Love Is Love Is Love 110BPM
TTITLE16=Susan Hickman - Hell Still Ain't Frozen Over 77BPM
TTITLE17=Williams Riley - Sweet September 66BPM
TTITLE18=Jimmy Wayne ft. Whitney Duncan - Just Knowing You Love Me 122BPM
TTITLE19=Randy Montana - Ain't Much Left Of Loving You 111BPM
TTITLE20=Lynyrd Skynyrd - That Ain't My America 82BPM
EXTD=
EXTT0=
EXTT1=
EXTT2=
EXTT3=
EXTT4=
EXTT5=
EXTT6=
EXTT7=
EXTT8=
EXTT9=
EXTT10=
EXTT11=
EXTT12=
EXTT13=
EXTT14=
EXTT15=
EXTT16=
EXTT17=
EXTT18=
EXTT19=
EXTT20=
PLAYORDER=
